<svg width="22" height="22" viewBox="0 0 22 22" fill="none" xmlns="http://www.w3.org/2000/svg">
<path d="M6.1875 12.375H2.0625C1.6828 12.375 1.375 12.6828 1.375 13.0625V19.9375C1.375 20.3172 1.6828 20.625 2.0625 20.625H6.1875C6.5672 20.625 6.875 20.3172 6.875 19.9375V13.0625C6.875 12.6828 6.5672 12.375 6.1875 12.375Z" fill="white"/>
<path d="M19.9375 6.875H15.8125C15.4328 6.875 15.125 7.1828 15.125 7.5625V19.9375C15.125 20.3172 15.4328 20.625 15.8125 20.625H19.9375C20.3172 20.625 20.625 20.3172 20.625 19.9375V7.5625C20.625 7.1828 20.3172 6.875 19.9375 6.875Z" fill="white"/>
<path d="M13.0625 1.375H8.9375C8.5578 1.375 8.25 1.6828 8.25 2.0625V19.9375C8.25 20.3172 8.5578 20.625 8.9375 20.625H13.0625C13.4422 20.625 13.75 20.3172 13.75 19.9375V2.0625C13.75 1.6828 13.4422 1.375 13.0625 1.375Z" fill="white"/>
</svg>
