<svg width="30" height="30" viewBox="0 0 30 30" fill="none" xmlns="http://www.w3.org/2000/svg">
<g clip-path="url(#clip0_303_11)">
<path d="M28.0521 7.75092H26.2648L26.7888 2.45743C26.8405 1.93509 26.4576 1.46807 25.9353 1.41636L24.3405 1.25853C23.7871 1.20326 23.7026 2.05956 24.2558 2.11431L25.8505 2.27214C25.901 2.27713 25.938 2.32231 25.933 2.37276L25.0334 11.4605H24.3239L24.0509 6.46281C24.0226 5.94471 23.5671 5.53502 23.0484 5.5642L20.6185 5.69692L20.2948 3.39096C20.2226 2.87647 19.7341 2.50852 19.2198 2.58052L11.2514 3.69905L11.5277 0.908064C11.5306 0.87871 11.5575 0.857785 11.588 0.860307L21.8944 1.88051C22.4478 1.93567 22.5322 1.07948 21.9791 1.02473L11.6727 0.00452696C11.1698 -0.0454084 10.7215 0.322141 10.6719 0.823329L10.3751 3.82209L5.02673 4.57284C4.52697 4.64301 4.17737 5.10584 4.24731 5.60462L4.54858 7.75098H1.94794C1.05208 7.75098 0.32329 8.48069 0.32329 9.37763V28.3735C0.32329 29.2704 1.05208 30.0001 1.94794 30.0001H4.85244C5.40838 30.0001 5.40838 29.1401 4.85244 29.1401H1.94794C1.52627 29.1401 1.18325 28.7962 1.18325 28.3735V9.37758C1.18325 8.95482 1.52627 8.61089 1.94794 8.61089H5.87585L6.97455 12.0223C7.03176 12.2 7.1971 12.3204 7.38383 12.3204H28.8168V28.3734C28.8168 28.7961 28.4738 29.14 28.0521 29.14H7.375C6.81906 29.14 6.81906 29.9999 7.375 29.9999H28.0521C28.9479 29.9999 29.6767 29.2702 29.6767 28.3734V9.37758C29.6767 8.48063 28.9479 7.75092 28.0521 7.75092V7.75092ZM23.0954 6.42285C23.1517 6.42503 23.184 6.45398 23.1923 6.50971L23.4627 11.4605H8.96152L8.73214 7.26092C8.73386 7.22789 8.75129 7.20909 8.78448 7.2045L23.0954 6.42285ZM6.60017 8.05472C6.54554 7.87722 6.37492 7.75098 6.18911 7.75098H5.41698L5.09891 5.48514C5.09483 5.45596 5.11605 5.42873 5.14626 5.42449L10.7052 4.64415C10.712 4.64513 10.7186 4.64651 10.7255 4.64719C10.7399 4.64863 10.7541 4.64931 10.7684 4.64931C10.8312 4.64931 10.8912 4.63521 10.9457 4.61039L19.3395 3.43218C19.3957 3.4296 19.4303 3.45568 19.4433 3.51049L19.7569 5.74399L8.73765 6.34585C8.23984 6.37303 7.84632 6.80938 7.87355 7.30781L8.10036 11.4605H7.69715L6.60017 8.05472ZM25.8976 11.4605L26.1797 8.61095H28.0521C28.4737 8.61095 28.8167 8.95488 28.8167 9.37763V11.4606H25.8976V11.4605Z" fill="white"/>
<path d="M22.9447 25.6963C23.1822 25.6963 23.3747 25.5038 23.3747 25.2663V21.3401C23.3747 21.1027 23.1822 20.9102 22.9447 20.9102H7.05527C6.8178 20.9102 6.62529 21.1027 6.62529 21.3401V25.2663C6.62529 25.5038 6.8178 25.6963 7.05527 25.6963H22.9447ZM7.48525 21.7701H22.5147V24.8364H7.48525V21.7701Z" fill="white"/>
<path d="M20.2567 22.8733H9.74329C9.18735 22.8733 9.18735 23.7333 9.74329 23.7333H20.2567C20.8127 23.7333 20.8127 22.8733 20.2567 22.8733Z" fill="white"/>
</g>
<defs>
<clipPath id="clip0_303_11">
<rect width="30" height="30" fill="white"/>
</clipPath>
</defs>
</svg>
