<svg version="1.1" xmlns="http://www.w3.org/2000/svg" xmlns:xlink="http://www.w3.org/1999/xlink" viewBox="0,0,1024,1024">
	<desc>explore icon - Licensed under Apache License v2.0 (http://www.apache.org/licenses/LICENSE-2.0) - Created with Iconfu.com - Derivative work of Material icons (Copyright Google Inc.)</desc>
	<g fill="#4d4545" fill-rule="nonzero" style="mix-blend-mode: normal">
		<path d="M938.67,512c0,235.52 -191.15,426.67 -426.67,426.67c-235.52,0 -426.67,-191.15 -426.67,-426.67c0,-235.52 191.15,-426.67 426.67,-426.67c235.52,0 426.67,191.15 426.67,426.67zM768,256l-349.44,162.56l-162.56,349.44l349.44,-162.56zM558.93,512c0,26.03 -20.9,46.93 -46.93,46.93c-26.03,0 -46.93,-20.9 -46.93,-46.93c0,-26.03 20.9,-46.93 46.93,-46.93c26.03,0 46.93,20.9 46.93,46.93z"/>
	</g>
</svg>