<svg width="30" height="30" viewBox="0 0 30 30" fill="none" xmlns="http://www.w3.org/2000/svg">
<g clip-path="url(#clip0_303_46)">
<path d="M17.3571 9.30194C17.4429 9.3879 17.5555 9.43084 17.6681 9.43084C17.7804 9.43084 17.8928 9.38801 17.9786 9.30235L18.3219 8.95957L18.6645 9.30217C18.7502 9.38795 18.8627 9.43084 18.9752 9.43084C19.0876 9.43084 19.2001 9.38795 19.2859 9.30217C19.4575 9.13049 19.4575 8.85229 19.2859 8.68067L18.9437 8.33848L19.2874 7.99524C19.4591 7.82374 19.4593 7.54547 19.2878 7.37379C19.1162 7.202 18.8379 7.20194 18.6663 7.37338L18.3223 7.71698L17.9788 7.37356C17.8072 7.20206 17.529 7.20194 17.3574 7.37356C17.1858 7.54524 17.1858 7.82344 17.3574 7.99506L17.7004 8.33807L17.3576 8.68049C17.1858 8.852 17.1856 9.13026 17.3571 9.30194V9.30194Z" fill="white"/>
<path d="M11.0928 16.281C10.9212 16.1094 10.643 16.1094 10.4714 16.281L10.1278 16.6246L9.7841 16.281C9.61248 16.1094 9.33422 16.1094 9.16265 16.281C8.99103 16.4527 8.99103 16.7309 9.16265 16.9025L9.50631 17.2461L9.16265 17.5898C8.99103 17.7615 8.99103 18.0397 9.16265 18.2113C9.24843 18.2971 9.36093 18.34 9.47338 18.34C9.58582 18.34 9.69832 18.2971 9.7841 18.2113L10.1278 17.8676L10.4714 18.2113C10.5572 18.2971 10.6697 18.34 10.7821 18.34C10.8946 18.34 11.0071 18.2971 11.0928 18.2113C11.2645 18.0396 11.2645 17.7614 11.0928 17.5898L10.7492 17.2461L11.0928 16.9025C11.2645 16.7309 11.2645 16.4527 11.0928 16.281V16.281Z" fill="white"/>
<path d="M4.58197 12.3848C4.66775 12.4706 4.78025 12.5135 4.89269 12.5135C5.00513 12.5135 5.11763 12.4706 5.20342 12.3848L5.54625 12.042L5.88908 12.3848C5.97486 12.4706 6.08736 12.5135 6.1998 12.5135C6.31224 12.5135 6.42474 12.4706 6.51053 12.3848C6.68215 12.2132 6.68215 11.935 6.51053 11.7633L6.16775 11.4206L6.51053 11.0778C6.68215 10.9061 6.68215 10.6279 6.51053 10.4563C6.3389 10.2847 6.06064 10.2847 5.88908 10.4563L5.54625 10.7991L5.20342 10.4563C5.03185 10.2848 4.75359 10.2847 4.58197 10.4563C4.41035 10.628 4.41035 10.9062 4.58197 11.0778L4.92474 11.4206L4.58197 11.7633C4.41035 11.935 4.41035 12.2132 4.58197 12.3848Z" fill="white"/>
<path d="M19.7776 15.5823C19.7028 15.4701 19.5275 15.2073 19.2101 15.2073C18.8927 15.2073 18.7175 15.4701 18.6427 15.5823C18.6427 15.5824 18.6426 15.5825 18.6425 15.5826C18.5616 15.7043 18.4668 15.8432 18.3629 15.9956C17.5395 17.2032 16.2952 19.0282 16.2952 20.2591C16.2952 22.1417 17.762 23.1268 19.211 23.1268C20.6591 23.1268 22.1251 22.1418 22.1251 20.2591C22.1251 19.0282 20.8808 17.2032 20.0574 15.9956C19.9535 15.8432 19.8588 15.7043 19.7776 15.5823V15.5823ZM19.211 22.2478C18.1971 22.2478 17.1741 21.6329 17.1741 20.259C17.1741 19.2993 18.4198 17.4723 19.089 16.4907C19.1309 16.4292 19.1714 16.3699 19.2101 16.3129C19.2488 16.3699 19.2893 16.4292 19.3312 16.4907C20.0004 17.4723 21.2461 19.2993 21.2461 20.259C21.2462 21.6254 20.1912 22.2478 19.211 22.2478V22.2478Z" fill="white"/>
<path d="M29.0101 25.9955L26.9802 23.9672C26.7956 23.7811 26.5488 23.6783 26.2854 23.6779C26.2847 23.6779 26.2842 23.6779 26.2835 23.6779C26.103 23.6779 25.9307 23.7269 25.78 23.8168L24.6308 22.6676C25.572 21.0544 25.7962 19.0423 25.0662 17.1711C25.0642 17.1657 25.0618 17.1605 25.0598 17.1553C26.3161 13.7332 26.0463 9.93545 24.3094 6.70658C22.0755 2.5698 17.7691 0 13.0708 0C10.1607 0 7.31461 1.00436 5.0567 2.82809C4.86785 2.98061 4.83843 3.25729 4.99095 3.44613C5.14347 3.63492 5.42021 3.66439 5.60894 3.51188C7.74152 1.78939 10.3218 0.878906 13.0708 0.878906C17.4458 0.878906 21.4559 3.27193 23.5358 7.12353C25.019 9.8809 25.3539 13.0838 24.497 16.0535C24.2086 15.603 23.8661 15.1939 23.4787 14.8339C23.9576 12.4204 23.5821 9.90797 22.4111 7.72951C20.553 4.29158 16.974 2.1559 13.0707 2.1559C7.22004 2.1559 2.46017 6.91588 2.46017 12.7667C2.46017 14.525 2.89945 16.2663 3.72984 17.8012C4.5556 19.3392 5.76902 20.6629 7.23849 21.6292C8.97597 22.7739 11.0069 23.3766 13.07 23.3766C13.4265 23.3766 13.7839 23.3576 14.1408 23.3214C14.3082 23.5397 14.4915 23.7497 14.6912 23.9494C14.8699 24.1285 15.0585 24.2951 15.2552 24.4502C12.2429 25.0129 9.11484 24.3939 6.53601 22.6973C4.89123 21.6146 3.53215 20.1316 2.60513 18.4073C1.6749 16.688 1.18324 14.7374 1.18324 12.7667C1.18324 9.84814 2.2497 7.04279 4.18617 4.86732C4.34754 4.68604 4.33136 4.4083 4.15013 4.24688C3.96879 4.08557 3.69105 4.10168 3.52968 4.28297C1.44984 6.61951 0.304392 9.6324 0.304392 12.7666C0.304392 14.883 0.832673 16.9781 1.83164 18.8245C2.82697 20.6757 4.2866 22.2687 6.05291 23.4314C8.15648 24.8153 10.5997 25.5318 13.0706 25.5318C14.1497 25.5318 15.2343 25.3948 16.2977 25.1173C16.7917 25.3686 17.3189 25.5555 17.8689 25.6702C18.2996 25.7607 18.7351 25.8056 19.1694 25.8056C19.9522 25.8056 20.7311 25.6596 21.4699 25.3704C21.7842 25.2478 22.083 25.1024 22.3655 24.9373L23.5116 26.0846C23.2884 26.4622 23.3369 26.959 23.6602 27.2848L25.6901 29.3147C26.148 29.7717 26.749 30 27.3498 30C27.9507 30 28.5515 29.7715 29.0085 29.3145C29.924 28.399 29.9247 26.9101 29.0101 25.9955V25.9955ZM3.33908 12.7666C3.33908 9.71191 4.75424 6.98191 6.96281 5.19633C7.875 6.01916 7.74117 6.58119 7.56029 7.33535C7.35709 8.18273 7.1042 9.2373 8.51097 10.5352C9.24486 11.2122 9.24562 12.0358 9.11701 12.6075C8.90261 13.5606 8.17904 14.4548 7.4342 14.6873C6.28717 15.0448 6.15597 15.9401 6.06029 16.5937C6.00832 16.9484 5.96349 17.2546 5.79129 17.4237C5.60654 17.6053 5.22263 17.6797 4.64959 17.6462C4.59955 17.5597 4.5508 17.4723 4.50345 17.3841C3.74174 15.9761 3.33908 14.3794 3.33908 12.7666V12.7666ZM7.72177 20.8951C6.75129 20.2569 5.90379 19.4484 5.22205 18.5197C5.74494 18.4763 6.13084 18.3224 6.4074 18.0506C6.79037 17.6743 6.86455 17.1679 6.93 16.721C7.02638 16.0628 7.10431 15.7107 7.69605 15.5263C8.73392 15.2024 9.69222 14.0559 9.97464 12.8004C10.2282 11.6731 9.92009 10.6393 9.10711 9.88916C8.07931 8.94094 8.22756 8.32283 8.41517 7.54031C8.60349 6.75486 8.83242 5.79662 7.68123 4.6677C9.22529 3.63668 11.079 3.03475 13.0709 3.03475C13.5574 3.03475 14.0381 3.07213 14.5104 3.14262L12.2791 4.42318C12.2763 4.42482 12.2734 4.42658 12.2706 4.42828C11.2574 5.0407 10.5959 6.14139 10.5851 7.23234C10.5753 8.2166 11.0852 9.08408 12.0207 9.67523C12.0936 9.72123 12.1747 9.7432 12.255 9.7432C12.4008 9.7432 12.5433 9.67078 12.627 9.53842C12.7566 9.33328 12.6953 9.06182 12.4902 8.93215C11.8121 8.50377 11.4572 7.91895 11.464 7.24102C11.4717 6.46137 11.9767 5.63484 12.7212 5.18291L15.7888 3.42229C18.2558 4.13924 20.3782 5.81625 21.6376 8.14647C22.639 10.0095 23.0061 12.1393 22.695 14.2134C22.0303 13.7683 21.2772 13.446 20.4668 13.2749C18.6841 12.903 16.8596 13.3104 15.4218 14.3685C14.8273 14.5099 14.3568 14.4536 14.155 14.2134C13.9193 13.9328 13.9773 13.3506 14.3141 12.6162C14.6353 11.9162 14.6264 11.2443 14.2878 10.6192C14.1722 10.4058 13.9055 10.3264 13.6921 10.4421C13.4787 10.5577 13.3994 10.8244 13.515 11.0378C13.7233 11.4223 13.7234 11.7961 13.5152 12.2498C12.8856 13.623 13.1495 14.3829 13.4819 14.7787C13.7096 15.0497 14.0272 15.2216 14.4156 15.2907C12.6383 17.3096 12.366 20.1984 13.5986 22.483C11.5267 22.5956 9.46353 22.0426 7.72177 20.8951V20.8951ZM21.1502 24.5518C20.1605 24.9391 19.0883 25.0284 18.0491 24.81C18.0489 24.8099 18.0487 24.8099 18.0485 24.8099C17.0102 24.5933 16.0644 24.081 15.3131 23.3282C13.188 21.203 13.188 17.7437 15.3131 15.6169C16.3485 14.5815 17.7327 14.019 19.1638 14.019C19.5364 14.019 19.9125 14.0572 20.2861 14.135C22.0957 14.5171 23.5766 15.7715 24.2476 17.4905C25.3403 20.2914 23.951 23.4591 21.1502 24.5518V24.5518ZM24.1268 23.4065L25.1364 24.4161L24.1109 25.4408L23.1037 24.4327C23.4867 24.1284 23.8289 23.7833 24.1268 23.4065ZM28.3871 28.693C27.8154 29.2646 26.8842 29.2645 26.3113 28.6929L24.2829 26.6645C24.2419 26.6231 24.2418 26.5533 24.2825 26.5117L26.2084 24.5875C26.2351 24.5608 26.2669 24.5568 26.2836 24.5568H26.2838C26.3036 24.5569 26.3322 24.562 26.3577 24.5877L28.3888 26.6171C28.9606 27.189 28.9598 28.1201 28.3871 28.693V28.693Z" fill="white"/>
</g>
<defs>
<clipPath id="clip0_303_46">
<rect width="30" height="30" fill="white"/>
</clipPath>
</defs>
</svg>
