<svg width="22" height="20" viewBox="0 0 22 20" fill="none" xmlns="http://www.w3.org/2000/svg">
<path d="M18.3333 2.93333H11.594C11.5508 2.93313 11.5085 2.92061 11.4721 2.89723C11.4357 2.87385 11.4068 2.84058 11.3887 2.80133L11 2.024C10.6952 1.41572 10.2272 0.904248 9.64824 0.546799C9.06933 0.189349 8.40238 2.28311e-05 7.722 0H3.66667C2.69421 0 1.76158 0.386308 1.07394 1.07394C0.386308 1.76158 0 2.69421 0 3.66667V15.4C0 16.3725 0.386308 17.3051 1.07394 17.9927C1.76158 18.6804 2.69421 19.0667 3.66667 19.0667H18.3333C19.3058 19.0667 20.2384 18.6804 20.9261 17.9927C21.6137 17.3051 22 16.3725 22 15.4V6.6C22 5.62754 21.6137 4.69491 20.9261 4.00727C20.2384 3.31964 19.3058 2.93333 18.3333 2.93333V2.93333ZM17.6953 13.2C17.6953 13.3945 17.6181 13.581 17.4805 13.7185C17.343 13.8561 17.1565 13.9333 16.962 13.9333H14.0287C13.8342 13.9333 13.6476 13.8561 13.5101 13.7185C13.3726 13.581 13.2953 13.3945 13.2953 13.2C13.2953 13.0055 13.3726 12.819 13.5101 12.6815C13.6476 12.5439 13.8342 12.4667 14.0287 12.4667H16.962C17.1565 12.4667 17.343 12.5439 17.4805 12.6815C17.6181 12.819 17.6953 13.0055 17.6953 13.2Z" fill="white"/>
</svg>
