<svg width="30" height="30" viewBox="0 0 30 30" fill="none" xmlns="http://www.w3.org/2000/svg">
<path d="M27.8721 7.43109C27.63 7.40584 27.4148 7.58168 27.3899 7.82303C27.3062 8.63355 27.0216 9.37758 26.5874 10.0096V4.6793C26.9347 5.18338 27.1873 5.75853 27.3169 6.38232C27.3664 6.61992 27.5991 6.77273 27.8366 6.7231C28.0742 6.67371 28.2268 6.44109 28.1774 6.20344C27.6357 3.59765 25.2871 1.70637 22.593 1.70637C19.4498 1.70637 16.8925 4.23269 16.8925 7.33793C16.8925 10.4432 19.4497 12.9696 22.593 12.9696C24.0109 12.9696 25.3707 12.4501 26.4221 11.5068C27.4676 10.5688 28.1217 9.29262 28.2641 7.9132C28.2891 7.67174 28.1136 7.45582 27.8721 7.43109ZM25.7085 3.76682V10.9725C24.8664 11.6732 23.7777 12.0906 22.5931 12.0906C19.9344 12.0906 17.7714 9.95848 17.7714 7.33787C17.7714 4.71726 19.9344 2.58521 22.5931 2.58521C23.7663 2.58521 24.8617 3.00797 25.7111 3.7183C25.7094 3.73418 25.7085 3.75041 25.7085 3.76682Z" fill="white"/>
<path d="M19.6222 7.33787C19.6222 6.55406 19.9302 5.81795 20.4895 5.265C20.6621 5.09437 20.6636 4.81617 20.493 4.64355C20.3224 4.471 20.0441 4.46941 19.8715 4.64004C19.144 5.35928 18.7433 6.3174 18.7433 7.33781C18.7433 8.35828 19.144 9.31646 19.8715 10.0358C19.9572 10.1204 20.0689 10.1627 20.1805 10.1627C20.2938 10.1627 20.407 10.1192 20.493 10.0322C20.6636 9.85968 20.6621 9.58142 20.4895 9.4108C19.9302 8.85779 19.6222 8.12162 19.6222 7.33787Z" fill="white"/>
<path d="M5.68769 24.8966C5.68769 25.1394 5.88445 25.3361 6.12715 25.3361H19.209C19.4518 25.3361 19.6485 25.1394 19.6485 24.8966C19.6485 24.6538 19.4518 24.4571 19.209 24.4571H17.3734V22.3371C17.3734 21.938 17.0487 21.6132 16.6495 21.6132H15.512C15.1129 21.6132 14.7881 21.938 14.7881 22.3371V24.4571H13.9607V18.9245C13.9607 18.5254 13.636 18.2006 13.2369 18.2006H12.0993C11.7002 18.2006 11.3754 18.5254 11.3754 18.9245V24.4571H10.548V21.1996C10.548 20.8004 10.2233 20.4757 9.82418 20.4757H8.68664C8.2875 20.4757 7.96277 20.8004 7.96277 21.1996V24.4571H6.5666V18.6401C6.5666 18.3974 6.36984 18.2007 6.12715 18.2007C5.88445 18.2007 5.68769 18.3974 5.68769 18.6401V24.8966ZM15.667 22.4922H16.4944V24.4571H15.667V22.4922ZM12.2544 19.0796H13.0818V24.4571H12.2544V19.0796ZM8.84168 21.3547H9.66908V24.4571H8.84168V21.3547Z" fill="white"/>
<path d="M6.12715 14.5294H15.7963C16.039 14.5294 16.2357 14.3327 16.2357 14.09C16.2357 13.8472 16.039 13.6505 15.7963 13.6505H6.12715C5.88445 13.6505 5.68769 13.8472 5.68769 14.09C5.68769 14.3327 5.88445 14.5294 6.12715 14.5294Z" fill="white"/>
<path d="M6.12715 9.41045H8.40223C8.64492 9.41045 8.84168 9.21375 8.84168 8.971C8.84168 8.72824 8.64492 8.53154 8.40223 8.53154H6.12715C5.88445 8.53154 5.68769 8.72824 5.68769 8.971C5.68769 9.21375 5.88445 9.41045 6.12715 9.41045Z" fill="white"/>
<path d="M6.12715 12.8231H14.0899C14.3326 12.8231 14.5294 12.6264 14.5294 12.3837C14.5294 12.1409 14.3326 11.9442 14.0899 11.9442H6.12715C5.88445 11.9442 5.68769 12.1409 5.68769 12.3837C5.68769 12.6264 5.88445 12.8231 6.12715 12.8231Z" fill="white"/>
<path d="M6.12715 4.86029H12.9524C13.1951 4.86029 13.3918 4.66359 13.3918 4.42084C13.3918 4.17808 13.1951 3.98138 12.9524 3.98138H6.12715C5.88445 3.98138 5.68769 4.17808 5.68769 4.42084C5.68769 4.66359 5.88445 4.86029 6.12715 4.86029Z" fill="white"/>
<path d="M30 7.33787C30 3.2918 26.6773 0 22.5931 0C21.1331 0 19.7701 0.42082 18.6217 1.14621C18.5935 1.14053 18.5643 1.13754 18.5343 1.13754H2.14576C0.962578 1.13754 0 2.10012 0 3.2833V7.83346C0 8.07621 0.196758 8.27291 0.439453 8.27291H3.41262V26.603C3.41262 27.1589 3.8649 27.6112 4.42084 27.6112H19.2169C19.4597 27.6112 19.6564 27.4145 19.6564 27.1717C19.6564 26.929 19.4597 26.7323 19.2169 26.7323H4.42084C4.34953 26.7323 4.29152 26.6743 4.29152 26.603V3.28336C4.29152 2.80992 4.13736 2.37176 3.87668 2.0165H17.4982C16.0748 3.35455 15.1862 5.2452 15.1862 7.33793C15.1862 10.9474 17.8303 13.9566 21.3005 14.564L21.3002 18.8282C20.7836 18.9921 20.4085 19.4731 20.4085 20.0395V20.1005C20.4085 20.4737 20.5712 20.8099 20.83 21.0428C20.5576 22.1636 20.4085 23.5697 20.4085 25.0312C20.4085 26.2502 20.5114 27.4314 20.7061 28.4471C20.8785 29.3469 21.6722 30 22.5931 30C23.5141 30 24.3077 29.3469 24.4801 28.4471C24.5314 28.1791 24.5764 27.8998 24.6148 27.6111H25.5792C26.1351 27.6111 26.5874 27.1588 26.5874 26.6029V14.9429C26.5874 14.7002 26.3907 14.5035 26.1479 14.5035C25.9052 14.5035 25.7085 14.7002 25.7085 14.9429V26.603C25.7085 26.6743 25.6505 26.7323 25.5792 26.7323H24.709C24.7545 26.183 24.7777 25.6114 24.7777 25.0313C24.7777 23.57 24.6286 22.1638 24.3564 21.0432C24.6151 20.8105 24.7777 20.4744 24.7777 20.1014V20.0404C24.7777 19.4736 24.4023 18.9922 23.8854 18.8283L23.8857 14.564C27.356 13.9566 30 10.9474 30 7.33787ZM3.41262 7.394H0.878906V3.2833C0.878906 2.58475 1.44721 2.01645 2.14576 2.01645C2.84432 2.01645 3.41262 2.58475 3.41262 3.2833V7.394V7.394ZM23.617 28.2817C23.5237 28.7681 23.0932 29.1211 22.5932 29.1211C22.0931 29.1211 21.6626 28.7681 21.5694 28.2817C21.3849 27.3196 21.2874 26.1956 21.2874 25.0312C21.2874 23.6902 21.4172 22.4057 21.6551 21.3722C21.6668 21.3725 21.6785 21.3727 21.6901 21.3727H23.497C23.5083 21.3727 23.5198 21.3725 23.5311 21.3722C23.769 22.4057 23.8988 23.6904 23.8988 25.0312C23.8988 26.1956 23.8013 27.3196 23.617 28.2817ZM23.8988 20.0404V20.1014C23.8988 20.3177 23.7186 20.4938 23.497 20.4938H21.6901C21.468 20.4938 21.2874 20.3173 21.2874 20.1005V20.0395C21.2874 19.8232 21.4676 19.6472 21.6892 19.6472H23.4961C23.7182 19.6472 23.8988 19.8236 23.8988 20.0404ZM22.1791 18.7683L22.1794 14.6646C22.4534 14.6797 22.7329 14.6797 23.0068 14.6646L23.0065 18.7683H22.1791ZM22.5931 13.7969C18.9936 13.7969 16.0651 10.8994 16.0651 7.33787C16.0651 3.77637 18.9936 0.878906 22.5931 0.878906C26.1926 0.878906 29.1211 3.77637 29.1211 7.33787C29.1211 10.8994 26.1926 13.7969 22.5931 13.7969Z" fill="white"/>
<path d="M6.12715 6.5666H10.6773C10.92 6.5666 11.1168 6.3699 11.1168 6.12715C11.1168 5.88439 10.92 5.68769 10.6773 5.68769H6.12715C5.88445 5.68769 5.68769 5.88439 5.68769 6.12715C5.68769 6.3699 5.88445 6.5666 6.12715 6.5666Z" fill="white"/>
<path d="M6.12715 16.2357H14.0899C14.3326 16.2357 14.5294 16.039 14.5294 15.7963C14.5294 15.5535 14.3326 15.3568 14.0899 15.3568H6.12715C5.88445 15.3568 5.68769 15.5535 5.68769 15.7963C5.68769 16.039 5.88445 16.2357 6.12715 16.2357Z" fill="white"/>
</svg>
