<svg width="22" height="22" viewBox="0 0 22 22" fill="none" xmlns="http://www.w3.org/2000/svg">
<path d="M12.493 0.549999C17.4287 0.549999 21.45 4.56593 21.45 9.50158C21.45 14.4372 17.4287 18.4518 12.493 18.4518C10.2732 18.4518 8.24381 17.6359 6.67774 16.2933L5.89636 17.0746L6.38321 17.5615C6.5123 17.6906 6.58481 17.8657 6.58481 18.0483C6.58481 18.2309 6.5123 18.406 6.38321 18.5352L4.31881 20.6009C3.86717 21.0529 3.28614 21.2723 2.74664 21.2478C2.20713 21.2244 1.72587 20.9819 1.37082 20.6278C1.01576 20.2738 0.773555 19.7942 0.748131 19.2547C0.722705 18.7152 0.942032 18.1331 1.39368 17.6812L3.46077 15.6127C3.52582 15.5477 3.60325 15.4963 3.68848 15.4616C3.77372 15.427 3.86503 15.4098 3.95703 15.411C4.13638 15.4135 4.30767 15.4859 4.43447 15.6127L4.92266 16.1009L5.70404 15.3196C4.35958 13.7534 3.54146 11.7228 3.54146 9.50158C3.54146 4.56593 7.55738 0.549999 12.493 0.549999Z" fill="white"/>
</svg>
