<svg width="22" height="22" viewBox="0 0 22 22" fill="none" xmlns="http://www.w3.org/2000/svg">
<g clip-path="url(#clip0_309_58)">
<path d="M13.9891 0C9.57194 0 5.97847 3.59347 5.97847 8.01022C5.97847 9.93865 6.65995 11.7567 7.88756 13.2008L6.62343 14.4654L6.16753 14.0091C5.91573 13.7577 5.50753 13.7577 5.25617 14.0091L0.188442 19.0768C-0.0629246 19.3282 -0.0633543 19.7364 0.188442 19.9882L2.0116 21.8113C2.2634 22.0627 2.67117 22.0631 2.92297 21.8113L7.99026 16.7436C8.24206 16.4922 8.24206 16.084 7.99026 15.8322L7.53479 15.3768L8.79893 14.1122C10.2465 15.3428 12.0658 16.0213 13.9891 16.0213C18.4063 16.0213 21.9998 12.4278 21.9998 8.01022C21.9998 3.59347 18.4063 0 13.9891 0V0ZM13.9891 3.86718C11.7045 3.86718 9.84565 5.726 9.84565 8.01065C9.84565 8.36643 9.5569 8.65518 9.20112 8.65518C8.84491 8.65518 8.55659 8.36643 8.55659 8.01065C8.55659 5.0153 10.9938 2.57812 13.9891 2.57812C14.3449 2.57812 14.6336 2.86687 14.6336 3.22265C14.6336 3.57843 14.3449 3.86718 13.9891 3.86718Z" fill="white"/>
</g>
<defs>
<clipPath id="clip0_309_58">
<rect width="22" height="22" fill="white"/>
</clipPath>
</defs>
</svg>
